<svg xmlns="http://www.w3.org/2000/svg" version="1.1" xmlns:xlink="http://www.w3.org/1999/xlink" width="1000" height="1000"><g clip-path="url(#SvgjsClipPath1113)"><rect width="1000" height="1000" fill="#ffffff"></rect><g transform="matrix(2.5497195308516063,0,0,2.5497195308516063,0,0)"><svg xmlns="http://www.w3.org/2000/svg" version="1.1" xmlns:xlink="http://www.w3.org/1999/xlink" width="392.2" height="392.2"><svg xmlns="http://www.w3.org/2000/svg" viewBox="0 0 392.2 392.2"><path d="M368.7 132.4c16.5-7.1 24.2-14.2 23.4-16.6-.1-.4-.5-.8-1.2-.8a40 40 0 00-9.9 4.4 101.2 101.2 0 01-25 10.3c3-1.5 7.4-3.8 13.4-7.5 11.1-6.9 18-14.7 18-17.2 0-.5-.1-1-.5-1.2l-.7-.2c-1 0-2.1 1-4.8 3.2a72 72 0 01-9.8 7.2c-9.1 5.4-15 8.4-18.9 10 3.1-1.8 7.1-4.3 11.3-7.6 13.1-10.3 17.7-18.4 17.5-21 0-.9-.5-1.2-.7-1.4l-.7-.1c-1.1 0-2.3 1.1-4.9 4a135 135 0 01-32.9 25l2.1-1.7c3.9-3 9.2-7.2 13.7-11.8 8.2-8.4 15.6-18.9 14.7-20.7-.3-.7-1-.8-1.1-.8-1 0-1.4.4-9.5 10.3l-.5.7c-6.3 7.5-21 18.6-28.2 23.4l7.4-8.1c12.3-13.3 13.6-15 13.4-16v-.6l-.5-.2c-.2-.2-.5-.2-.7-.2-1.4 0-3.2 1.5-10 7.4a1158 1158 0 01-34 27.9c4.7-6.4 7.9-12.5 7-14.3-.1-.5-.6-.8-1.1-.8-.5 0-1.7 0-5.8 5.9-8.6 12.3-77.2 52.2-89.2 56a30.3 30.3 0 01-8.5 1.7c-3.2 0-4-1.3-5.1-3.4l-.3-.4c-2.1-3.8-6-4.2-10-4.3-2.3 0-7.7.3-10 4.3l-.3.5c-1.1 2-1.9 3.3-5.1 3.3-2 0-4.8-.5-8.5-1.7-12-3.8-80.6-43.7-89.2-56-4-5.9-5.3-5.9-5.8-5.9s-1 .3-1.2.8c-.8 1.8 2.4 8 7.2 14.3a666.3 666.3 0 01-34-28c-6.9-5.8-8.7-7.3-10-7.3-.4 0-.6 0-.8.2l-.5.3v.5c-.2 1 1 2.7 13.3 16l7.5 8.1c-7.2-4.8-22-15.9-28.2-23.4l-.5-.7c-8.1-9.9-8.5-10.3-9.5-10.3-.2 0-.8.1-1.1.8-1 1.8 6.5 12.3 14.7 20.7a137.1 137.1 0 0015.8 13.4 129 129 0 01-33-25c-2.6-2.8-3.7-4-4.8-4l-.7.2c-.2.2-.7.5-.7 1.4-.2 2.6 4.4 10.7 17.5 21 4.2 3.3 8.2 5.8 11.2 7.7-3.8-1.7-9.7-4.7-18.8-10-4-2.4-7.3-5.2-9.8-7.3-2.7-2.3-3.8-3.2-4.8-3.2l-.7.2c-.4.3-.6.7-.6 1.2 0 2.5 7 10.3 18.1 17.2 6 3.7 10.4 6 13.4 7.5a95.9 95.9 0 01-25-10.3 40 40 0 00-10-4.4c-.6 0-1 .4-1.1.8-.8 2.4 6.9 9.5 23.4 16.6l2.5 1 6.8 3a62 62 0 01-18.6-5.3 26.6 26.6 0 00-7-2.4c-.8 0-1.2.4-1.3.6-.2.3-.3.7-.1 1 .6 2.1 9.1 7.7 19.1 12a78 78 0 004.7 1.7h-1.4a46.3 46.3 0 01-8-.7c-.8 0-1.4.5-1.4 1.3-.2 2 3.3 5.4 9 6.2 2.5.4 4.4 1 5.6 1.3-1.9.4-4 1.1-4.3 2.8-.3 2.2 3.3 3.4 4.4 3.8L38 160c4.2 1.1 4.5 1.4 4.2 2.6-1.7 6.3 2.3 7.9 4.9 8.9l.5.2c.6.2.7.8.9 2.1.2 1.6.4 3.7 2.7 5.1 1.8 1.1 3.2 1.5 4.2 1.8 1 .3 1.5.4 2 1.1.4.5.6 1.4.8 2.3.3 1.7.6 3.9 3 4.8 1.1.4 1.4 1.3 1.9 2.8.4 1.5 1 3.3 2.8 4.4l3.7 2.6c14.6 10.2 59 41.2 72.6 41.2a5 5 0 002.2-.4c7.5-2.7 9.2-6 10-7.7l.6-.9h.4c.8.3 2.1.5 3.8.8 4.8.7 13.8 2 14 5.6.2 1.4 1 3 1.8 5 1 2.3 2 4.8 2.4 7.3a851.1 851.1 0 01-27.8 16.2c-3.6 1.8-4.7 4.9-4.2 7 .5 2 2.3 3.1 4.5 2.6-1 1.5-2.7 4.4 0 6.1.9.5 1.7.8 2.6.8 1.3 0 2.5-.6 3.4-1l1.5-.5s.2 0 .3.3c.4.8.2 1.9 0 3.1-.2 2.2-.6 4.8 2 7.1a5 5 0 003.3 1.3c1.3 0 2.5-.5 3.4-1 .6-.2 1.2-.5 1.6-.5l.2.2c.3.3.3.7 0 1.8-.3 1.6-.8 4 2.5 6 2.1 1.2 4 1.8 5.7 1.8 1.7 0 3-.6 4-1.1l1.3-.6c.5-.1.8.2 1.5 1 .8 1 1.9 2.4 4 3 2.2.7 5.5 1 8.9 1 3.4 0 6.6-.3 9-1 2.1-.5 3.2-2 4-3 .7-.8 1-1.1 1.4-1 .4 0 1 .3 1.6.6 1.2.5 2.7 1.1 4.5 1.1a8 8 0 005-2c3-2.2 2.6-4.4 2.3-6-.2-1-.2-1.3.1-1.6l.3-.2c.4 0 1 .3 1.6.6.9.4 2 1 3.3 1a5 5 0 003.3-1.4c2.6-2.3 2.3-5 2-7a6.8 6.8 0 010-3.2l.3-.3c.4 0 1 .3 1.5.5 1 .4 2.1 1 3.4 1 1 0 1.8-.3 2.6-.8 2.7-1.7 1-4.6 0-6 2.3.4 4-.7 4.5-2.7.5-2.1-.6-5.2-4.1-7a777 777 0 01-26.6-15.5c.1-2.9 1-6 1.7-8.5.6-1.8 1-3.4 1.1-4.6.3-3.4 9.3-4.8 14-5.5a37 37 0 004.3-.8c.1 0 .4.5.5.9 1 1.7 2.6 5 10 7.7.7.3 1.5.4 2.3.4 13.6 0 58-31 72.6-41.2l3.7-2.6c1.8-1.1 2.4-3 2.8-4.4.4-1.5.7-2.4 1.8-2.8 2.4-1 2.8-3.1 3.1-4.9.2-.9.3-1.7.7-2.2.6-.7 1-.8 2.1-1.1 1-.3 2.4-.7 4.2-1.8 2.3-1.4 2.5-3.5 2.7-5 .1-1.4.3-2 .9-2.2l.5-.2c2.6-1 6.5-2.6 4.9-8.9-.3-1.2 0-1.5 4.2-2.6l4.4-1.3c1.2-.4 4.7-1.6 4.5-3.8-.3-1.7-2.5-2.4-4.3-2.8 1.2-.4 3-.9 5.6-1.3 5.7-.8 9.2-4.2 9-6.2 0-.8-.7-1.3-1.5-1.3h-.4a46.3 46.3 0 01-8.9.7l.4-.2 4.3-1.6c10-4.2 18.4-9.8 19.1-11.8v-1c-.2-.3-.6-.7-1.4-.7a26 26 0 00-7 2.4l-5.7 2.3a62 62 0 01-12.9 3l6.8-3 2.5-1z"></path></svg></svg></g></g><defs><clipPath id="SvgjsClipPath1113"><rect width="1000" height="1000" x="0" y="0" rx="150" ry="150"></rect></clipPath></defs></svg>